<?xml version="1.0" encoding="UTF-8" standalone="no"?>
<svg xmlns="http://www.w3.org/2000/svg" viewBox="0 0 624 675">
	<style>
		@media (prefers-color-scheme: dark) {
			* {
				fill: white;
			}
		}
	</style>
  <path d="M142 256v23h250v-23zm91 45v23h249v-23zm-91 46v23h250v-23zm91 45v23h249v-23zm-91 46v22h250v-22zm91 45v23h249v-23zm-91 45v23h250v-23zm91 46v22h249v-22ZM146 0c-12 0-21 9-21 21v31H52C24 52 0 75 0 104v519c0 29 23 52 52 52h520c28 0 52-23 52-52V104c0-29-23-52-52-52h-73V21c0-12-9-21-21-21h-21c-11 0-20 10-20 21v31H187V21c0-12-9-21-21-21Zm0 21h21v83h-21zm312 0h21v83h-21ZM52 72h73v32c0 11 10 21 21 21h21c11 0 21-10 21-21V73h249v31c0 11 10 21 21 21h21c11 0 21-10 21-21V73h72c17 0 31 14 31 31v73H21v-73c0-17 14-31 31-31ZM21 197h583v426c0 18-14 32-32 32H52c-17 0-31-14-31-31Z"/>
</svg>
